<svg width="386" height="361" viewBox="0 0 386 361" fill="none" xmlns="http://www.w3.org/2000/svg">
<g opacity="0.1">
<mask id="mask0_1_470" style="mask-type:alpha" maskUnits="userSpaceOnUse" x="0" y="0" width="387" height="361">
<rect x="385.5" y="0.5" width="360" height="385" transform="rotate(90 385.5 0.5)" fill="url(#paint0_linear_1_470)" stroke="#6246E5"/>
</mask>
<g mask="url(#mask0_1_470)">
<path d="M142.505 453.92C73.1725 453.92 16.9659 397.635 16.9659 328.202C16.9659 258.769 73.1725 202.484 142.505 202.484C211.838 202.484 268.045 258.769 268.045 328.202C268.045 397.635 211.838 453.92 142.505 453.92Z" stroke="#6246E5"/>
<path d="M155.773 458.902C78.1967 458.902 15.3076 395.925 15.3076 318.237C15.3076 240.55 78.1967 177.573 155.773 177.573C233.349 177.573 296.238 240.55 296.238 318.237C296.238 395.925 233.349 458.902 155.773 458.902Z" stroke="#6246E5"/>
<path d="M166.552 463.885C81.6489 463.885 12.8199 394.959 12.8199 309.934C12.8199 224.909 81.6489 155.983 166.552 155.983C251.456 155.983 320.285 224.909 320.285 309.934C320.285 394.959 251.456 463.885 166.552 463.885Z" stroke="#6246E5"/>
<path d="M182.308 467.206C90.9928 467.206 16.9663 393.076 16.9663 301.63C16.9663 210.184 90.9929 136.054 182.308 136.054C273.623 136.054 347.649 210.184 347.649 301.63C347.649 393.076 273.623 467.206 182.308 467.206Z" stroke="#6246E5"/>
<path d="M197.648 470.528C100.151 470.528 21.1122 391.378 21.1122 293.742C21.1122 196.105 100.151 116.955 197.648 116.955C295.145 116.955 374.183 196.105 374.183 293.742C374.183 391.379 295.145 470.528 197.648 470.528Z" stroke="#6246E5"/>
<path d="M215.061 474.68C107.947 474.68 21.1122 387.723 21.1122 280.456C21.1122 173.188 107.947 86.2314 215.061 86.2314C322.176 86.2314 409.01 173.188 409.01 280.456C409.01 387.723 322.176 474.68 215.061 474.68Z" stroke="#6246E5"/>
</g>
</g>
<defs>
<linearGradient id="paint0_linear_1_470" x1="642.035" y1="10.8297" x2="468.055" y2="420.82" gradientUnits="userSpaceOnUse">
<stop stop-color="#747DEF"/>
<stop offset="1" stop-color="#5E3BE1"/>
</linearGradient>
</defs>
</svg>
